<svg xmlns="http://www.w3.org/2000/svg" width="16.455" height="14.655" viewBox="0 0 16.455 14.655">
    <g id="streamline-icon-interface-favorite-like-1_48x48" data-name="streamline-icon-interface-favorite-like-1@48x48" transform="translate(-1.214 -3.852)">
      <g id="Group_88" data-name="Group 88" transform="translate(1.714 4.352)">
        <path id="Path_353" data-name="Path 353" d="M11.554,9.8l3.018-4.825a1.3,1.3,0,0,1,1.117-.618h0A1.319,1.319,0,0,1,17.056,5.66V9.118h5.217a1.367,1.367,0,0,1,1.307,1.569l-.951,6.132a1.355,1.355,0,0,1-1.343,1.188h-7.8a2.377,2.377,0,0,1-1.07-.25l-.856-.428" transform="translate(-8.144 -4.352)" fill="blue" stroke="#4677d3" stroke-linecap="round" stroke-linejoin="round" stroke-width="1"/>
        <line id="Line_15" data-name="Line 15" y2="7.499" transform="translate(3.411 5.444)" fill="blue" stroke="#4677d3" stroke-linecap="round" stroke-linejoin="round" stroke-width="1"/>
        <path id="Path_354" data-name="Path 354" d="M2.308,20.057H5.125v7.5H2.308a.594.594,0,0,1-.594-.594v-6.31a.594.594,0,0,1,.594-.594Z" transform="translate(-1.714 -14.614)" fill="blue" stroke="#4677d3" stroke-linecap="round" stroke-linejoin="round" stroke-width="1"/>
      </g>
    </g>
  </svg>
  