<svg xmlns="http://www.w3.org/2000/svg" xmlns:xlink="http://www.w3.org/1999/xlink" width="609.389" height="501.235" viewBox="0 0 609.389 501.235">
  <defs>
    <clipPath id="clip-path">
      <rect id="Rectangle_20" data-name="Rectangle 20" width="603.88" height="361.164" fill="none"/>
    </clipPath>
    <clipPath id="clip-path-2">
      <rect id="Rectangle_22" data-name="Rectangle 22" width="106.969" height="95.652" fill="none"/>
    </clipPath>
    <clipPath id="clip-path-3">
      <rect id="Rectangle_24" data-name="Rectangle 24" width="28.247" height="41.642" fill="none"/>
    </clipPath>
    <clipPath id="clip-path-4">
      <rect id="Rectangle_29" data-name="Rectangle 29" width="36.2" height="11.126" transform="translate(0 0)" fill="none"/>
    </clipPath>
    <clipPath id="clip-path-5">
      <rect id="Rectangle_23" data-name="Rectangle 23" width="27.98" height="29.141" transform="translate(0 0)" fill="none"/>
    </clipPath>
    <clipPath id="clip-path-6">
      <rect id="Rectangle_32" data-name="Rectangle 32" width="66.013" height="64.043" fill="none"/>
    </clipPath>
  </defs>
  <g id="Group_71" data-name="Group 71" transform="translate(-719.059 -94.876)">
    <g id="Group_14" data-name="Group 14" transform="translate(-74.591 161.793)">
      <g id="undraw_organizing_projects_re_9p1k" transform="translate(793.651 71.676)">
        <g id="Group_41" data-name="Group 41" transform="translate(5.509 0)">
          <g id="Group_40" data-name="Group 40" transform="translate(0 0)" clip-path="url(#clip-path)">
            <path id="Path_204" data-name="Path 204" d="M579.547,361.154c-35.572,0-553.753.118-554.053-.745l-.051-.109a.552.552,0,0,1-.051-.16c-.2-.432-79.84-121.634,43.973-206.007,48.444-33.014-3.031-54.807,35.492-91.559,44.272-42.234,92.588,4.487,141.818-14.664,8.7-3.381,17.426-8.822,26.164-17.172,20.383-19.46,48.436-28.321,76.774-30.3C404.622-3.39,466.527,18.124,498.473,49.57,504.9,55.9,534.151,88.665,511.1,133.7c-14.556,28.432,46.423,55.588,68.092,88.055,55.092,82.548.858,138.324.358,139.4" transform="translate(0 0.005)" fill="#f8eedd"/>
          </g>
        </g>
        <path id="Path_64" data-name="Path 64" d="M231.746,114.38l93.675-80.124h.148v1.176h.286l-93.344,79.841Z" transform="translate(-43.4 0.154)" fill="#2f2e41"/>
        <path id="Path_45" data-name="Path 45" d="M406.892,353.629v0a.538.538,0,0,1,.586-.468l88.169.235a.536.536,0,0,1,.582.47v0a.537.537,0,0,1-.586.468l-88.169-.235A.536.536,0,0,1,406.892,353.629Z" transform="translate(-217.309 -230.684)" fill="#3f3d56"/>
        <path id="Path_3" data-name="Path 3" d="M968.686,658.432c.545-16.252-6.892-32.4-21.36-37.939,3.447,16.61.521,35.3-8.1,51.7-3.356,6.389-7.713,13.237-6.517,19.754.744,4.055,3.626,7.2,7.085,9.19s7.49,2.983,11.471,3.954l.705.692C960.857,690.949,968.142,674.684,968.686,658.432Z" transform="translate(-442.546 -345.243)" fill="#f47920"/>
        <path id="Path_4" data-name="Path 4" d="M954.72,620.54a57.034,57.034,0,0,1,10.15,36.492,29.4,29.4,0,0,1-1.67,8.673,19.159,19.159,0,0,1-5.063,7.307c-2.068,1.928-4.376,3.69-6.006,6.025a10.376,10.376,0,0,0-1.714,7.938c.607,3.248,2.389,5.917,4.232,8.453,2.046,2.816,4.221,5.7,4.7,9.4.058.448.77.233.712-.214-.833-6.429-6.4-10.168-8.431-15.98a9.971,9.971,0,0,1,.695-8.66c1.509-2.463,3.887-4.282,6-6.218a20.563,20.563,0,0,0,5.194-7,27.588,27.588,0,0,0,1.992-8.623,59.2,59.2,0,0,0-1.539-19.052,55.343,55.343,0,0,0-8.691-19.073C955.026,619.658,954.471,620.192,954.72,620.54Z" transform="translate(-450.14 -344.986)" fill="#fff"/>
        <path id="Path_5" data-name="Path 5" d="M976.4,669.5a11.507,11.507,0,0,0,8.851-9.992c.036-.463-.681-.439-.717.024a10.652,10.652,0,0,1-8.25,9.28.349.349,0,1,0,.116.688Z" transform="translate(-461.179 -361.819)" fill="#fff"/>
        <path id="Path_6" data-name="Path 6" d="M960.653,703.016a15.474,15.474,0,0,1-6.54-10.859c-.059-.447-.771-.232-.712.214a16.089,16.089,0,0,0,6.83,11.282c.358.244.777-.4.421-.638Z" transform="translate(-451.497 -375.846)" fill="#fff"/>
        <path id="Path_7" data-name="Path 7" d="M965.713,642.151a5.232,5.232,0,0,1-5.081-.35c-.354-.248-.773.391-.421.638a5.856,5.856,0,0,0,5.617.4.435.435,0,0,0,.3-.451.312.312,0,0,0-.414-.237Z" transform="translate(-454.36 -354.35)" fill="#fff"/>
        <path id="Path_8" data-name="Path 8" d="M868.928,668.639c.215.162.431.324.646.493a58.115,58.115,0,0,1,7.976,7.34c.191.2.381.415.565.625a63,63,0,0,1,12.764,22.837,66.2,66.2,0,0,1,2.357,10.512c.7,4.968,1.05,10.465,3.332,14.558a10.392,10.392,0,0,0,.784,1.233l26.346.447c.065-.029.129-.053.194-.082l1.044.066c-.013-.189-.03-.385-.043-.574-.007-.11-.02-.22-.026-.33-.007-.073-.013-.147-.015-.214,0-.024,0-.049-.007-.067,0-.067-.01-.128-.013-.189q-.141-1.639-.306-3.279c0-.006,0-.006,0-.012a97.557,97.557,0,0,0-5.269-24.094c-.085-.227-.169-.46-.266-.687a58.938,58.938,0,0,0-4.746-9.687,50.7,50.7,0,0,0-3.352-4.805,41.835,41.835,0,0,0-11.274-9.908,38.134,38.134,0,0,0-29.878-4.415C869.465,668.483,869.2,668.558,868.928,668.639Z" transform="translate(-415.3 -365.212)" fill="#f47920"/>
        <path id="Path_9" data-name="Path 9" d="M868.749,669.846a53.2,53.2,0,0,1,31.176,19.87,23.1,23.1,0,0,1,3.8,7.2,15.592,15.592,0,0,1-.026,8.289c-.654,2.632-1.62,5.291-1.639,7.947a8.238,8.238,0,0,0,3.317,6.7c2.514,1.948,5.712,2.77,8.884,3.46,3.521.766,7.2,1.5,9.871,3.85.324.284.821-.3.5-.585-4.648-4.081-11.846-3.364-17.174-6.279-2.486-1.361-4.467-3.543-4.657-6.6-.166-2.674.828-5.416,1.513-8.079a16.9,16.9,0,0,0,.331-8.147,21.569,21.569,0,0,0-3.488-7.363A50.45,50.45,0,0,0,888.2,677.457a55.7,55.7,0,0,0-19.286-8.328c-.434-.1-.6.62-.167.717Z" transform="translate(-415.115 -366.08)" fill="#fff"/>
        <path id="Path_10" data-name="Path 10" d="M919.127,689.719c3.538-3.58,4.273-8.933,1.738-12.506-.25-.352-.869.1-.619.453,2.375,3.347,1.667,8.287-1.64,11.633C918.258,689.651,918.781,690.069,919.127,689.719Z" transform="translate(-436.539 -369.494)" fill="#fff"/>
        <path id="Path_11" data-name="Path 11" d="M921.24,727.079a16.428,16.428,0,0,1-12.386-3.775c-.325-.283-.823.3-.5.585a17.1,17.1,0,0,0,12.9,3.9c.464-.043.446-.754-.016-.711Z" transform="translate(-432.15 -389.267)" fill="#fff"/>
        <path id="Path_12" data-name="Path 12" d="M888.673,678.371a6.455,6.455,0,0,1-4.7,2.837c-.464.038-.445.748.016.711a7.234,7.234,0,0,0,5.206-3.127.362.362,0,0,0-.012-.5A.376.376,0,0,0,888.673,678.371Z" transform="translate(-421.601 -369.981)" fill="#fff"/>
        <path id="Path_13" data-name="Path 13" d="M807.716,634.872c.055-.062-.365-.115-1.143-.16V608.584H768.855v2.1H751.876a7.518,7.518,0,0,0-7.509,7.509V629a7.514,7.514,0,0,0,7.509,7.509l17.4.023,7.641.011h.525l7.647.012,21.356.029h1.84C808.556,636.284,807.458,635.175,807.716,634.872Z" transform="translate(-361.924 -340.14)" fill="#303c60"/>
        <path id="Path_14" data-name="Path 14" d="M838.168,565.361c-1.247,1.819-2.258,1.752-3.142.575a9.409,9.409,0,0,1-1.115-2.185c-2.688-6.892-4.446-22.7-9.515-17.175-1,1.092-2.017,2.175-3.037,3.246-1.9,1.994-3.877,4.159-5.839,6.071,0,.006.044-.207.038-.2-.968.947-.239-7.242-.622-9.546-.081-.5-.214-.72-.426-.521-.016-.224-.027-.447-.025-.673a9.371,9.371,0,0,1,.054-1.065c.032-.326.076-.654.138-.986l16.572-88.615a11.106,11.106,0,0,1,9.591-8.974,11.466,11.466,0,0,1,3.333.117l3.017.564a10.951,10.951,0,0,1,3.39,1.239h.006a11.1,11.1,0,0,1,5.459,11.689Z" transform="translate(-391.971 -270.144)" fill="#303c60"/>
        <path id="Path_15" data-name="Path 15" d="M435.174,589l-7.78-3.721,10.687-32.52,11.483,5.492Z" transform="translate(-130.489 -243.306)" fill="#f2c7a7"/>
        <path id="Path_16" data-name="Path 16" d="M684.637,711.571c-.566.354-1.131.7-1.7,1.052-1.137.7-2.286,1.383-3.435,2.057-.577.337-1.16.674-1.737,1.006v.017l-.034.006-.011.006-.88.217-1.263-3.338-.583-1.537-.823-2.177-1.509-3.983-7.943-20.973,12.35-3.046.463,1.892h.006l.228.937,4.315,17.5.88,3.578.029.109.531,2.137.457,1.852.509,2.069Z" transform="translate(-327.791 -371.118)" fill="#f2c7a7"/>
        <path id="Path_17" data-name="Path 17" d="M751.418,577.576c-.783,1.257-1.583,2.509-2.389,3.749q-2.246,3.463-4.612,6.823c0,.006-.005.006-.011.011a16.128,16.128,0,0,1-3.029,2.212c-.046.034-.1.057-.143.086a11.177,11.177,0,0,1-2.549,1.023l-.966.24c-1.154.274-2.3.509-3.435.714-2.023.36-4.023.617-6.012.777-.16.017-.32.029-.48.04-8.178.6-16.139-.366-24.448-1.949-4.1-.777-8.292-1.709-12.63-2.674-1.417-.32-2.84-.634-4.28-.949-.109-.023-.223-.051-.337-.074-2.057-.451-4.149-.9-6.292-1.337-2.7-.554-5.481-1.091-8.372-1.6l.206,4.075a30.667,30.667,0,0,0,1.931,9.161c1.234,3.612,2.212,6.469.149,12.418l-.995,2.88a9.837,9.837,0,0,1-1.011,8.7l-.2.3,8.292,20.979.537,1.36H676.1l-5.223.006h-8.852l-12.773-25.625-.612-1.223v-.063l1.32-49.245c.017-.434.052-.874.109-1.309a14.971,14.971,0,0,1,5.7-10.081,14.419,14.419,0,0,1,10.738-2.937l4.372.566,8.932,1.154,6.292.817.126.017,18.556,2.4,1.332-5.429.246-.092,7.812-2.863,27.02-9.9.068-.023,1.777-.651.211.343c.063.1.126.206.183.309a52.944,52.944,0,0,1,4.269,9.91,155.532,155.532,0,0,1,4.486,17.127q.077.377.137.686l.017.063c.017.1.029.16.034.177A15.983,15.983,0,0,1,751.418,577.576Z" transform="translate(-320.901 -310.778)" fill="#2f2e41"/>
        <path id="Path_18" data-name="Path 18" d="M734.13,553.645c-.086-.366-.195-.737-.309-1.1a78.182,78.182,0,0,0-3.166-8.012c-1.349-2.972-2.966-6.155-4.892-9.6q-1.4-2.5-3.006-5.206-.805-1.354-1.674-2.76-.034-.065-.074-.126l-.166-.274-26.734,3.577-9.955,1.332-.595,4.96-.143,1.229c-.006,0-.006,0,0,.006l-.4,3.349v.006l-.531,4.423-.046-.006-14.773-1.914-15.224-1.972-8.178-1.057a14.41,14.41,0,0,0-10.738,2.938,14.979,14.979,0,0,0-5.7,10.081c-.052.4-.086.812-.1,1.217l-7.715,18.282a117.952,117.952,0,0,0-8.721,34.312l-5.658,18.087.806.074,11.99,1.114,3.166.3,6.972-10.178c.794-1.16,1.549-2.354,2.252-3.577a54.344,54.344,0,0,0,3.08-6.195l15.081-35.889q1.749.3,3.463.571,7.929,1.286,15.224,2.1c15.813,1.766,29.506,1.9,41.7.406q5.135-.626,9.926-1.646,1.758-.369,3.469-.794c.269-.063.531-.126.794-.194a14.584,14.584,0,0,0,10.2-9.532,14.88,14.88,0,0,0,.377-8.326Z" transform="translate(-302.473 -304.994)" fill="#2f2e41"/>
        <path id="Path_19" data-name="Path 19" d="M590.672,730.967l-8.418-4.035-1.32-.634-2.109,5.178-14.721,3.24a3.493,3.493,0,0,0-.571,6.646l14.384,5.869,4.566-4.109-1.12,5.515,5.418,2.212,5.938-18.9Z" transform="translate(-283.501 -390.582)" fill="#2f2e41"/>
        <path id="Path_20" data-name="Path 20" d="M535.881,592.93l.537,1.36h-.537Z" transform="translate(-176.977 -260.52)" fill="#2f2e41"/>
        <path id="Path_21" data-name="Path 21" d="M447.678,530.873c0-3.063-1.029-5.549-2.292-5.555H350.241c-1.269.006-2.292,2.492-2.3,5.555V656.967a1.144,1.144,0,0,1-1.034,1.139q-1.386.133-2.772.248c-.023,0-.046.006-.069.006-.5.046-1.006.08-1.509.12h-.006q-.388-.717-.767-1.447a1.149,1.149,0,0,1-.13-.531V523.667c0-.846.034-1.7.091-2.537a32.537,32.537,0,0,1,.429-3.44c.966-5.309,3.149-8.9,5.629-8.915H447.815a2.674,2.674,0,0,1,1.052.223,4.1,4.1,0,0,1,1.3.909,8.037,8.037,0,0,1,1.274,1.743,22.941,22.941,0,0,1,2.406,9.1c0,.034.006.069.006.1.08.926.12,1.869.114,2.812l.08,12.247.051,7.3.154,22.917.057,8.138.252,83.551h0a1.143,1.143,0,0,1-1.143,1.143h-4.595a1.143,1.143,0,0,1-1.143-1.143Z" transform="translate(-189.355 -297.369)" fill="#3f3d56"/>
        <path id="Path_22" data-name="Path 22" d="M230.782,307.348l-6.618,29.12-4.229,4.632h-3.051l12.575-52.946.622,8.995v.006Z" transform="translate(-40.281 -129.918)" fill="#3f3d56"/>
        <path id="Path_23" data-name="Path 23" d="M423.725,501.171l-38.826-.246-3.446-.023-2.457-.017-2.863-.017h-.023a1.58,1.58,0,0,0-1.109.457l-4.835,4.835a1.246,1.246,0,0,0-.257.366.556.556,0,0,0-.074.126,1.614,1.614,0,0,0,1.452,2.252h50.3a1.6,1.6,0,0,0,1.44-.914l.394-.857.812-1.743.92-1.966a1.569,1.569,0,0,0,.149-.669,1.592,1.592,0,0,0-1.572-1.583Z" transform="translate(-201.373 -293.981)" fill="#3f3d56"/>
        <path id="Path_24" data-name="Path 24" d="M423.416,511.374l-.4.86a1.6,1.6,0,0,1-1.436.913h-50.3a1.611,1.611,0,0,1-1.449-2.25.482.482,0,0,1,.073-.126Z" transform="translate(-201.373 -298.225)" opacity="0.17" style="mix-blend-mode: normal;isolation: isolate"/>
        <path id="Path_25" data-name="Path 25" d="M230.08,297.15v.006L219.312,341.1h-2.429l12.575-52.946Z" transform="translate(-40.281 -129.918)" opacity="0.17" style="mix-blend-mode: normal;isolation: isolate"/>
        <path id="Path_26" data-name="Path 26" d="M406.737,347.148,391.5,231.189a1.653,1.653,0,0,0-.629-1.1l-10.492-13.133-.943-.726a1.674,1.674,0,0,0-1.223-.326l-1.577.211a1.654,1.654,0,0,0-1.429,1.852h0L391,338.119v.006l.966,7.349,1.149,8.727v.011L394.9,367.79a1.618,1.618,0,0,0,.714,1.154,1.642,1.642,0,0,0,1.332.24l1-.251a1.679,1.679,0,0,0,.949-.651l.446-.634.206-.3,6.9-19.03A1.643,1.643,0,0,0,406.737,347.148Z" transform="translate(-203.724 -171.865)" fill="#3f3d56"/>
        <path id="Path_27" data-name="Path 27" d="M380.373,216.959l19.172,150.393-.208.294-.444.632a1.674,1.674,0,0,1-.949.652l-1,.252a1.66,1.66,0,0,1-2.046-1.393l-19.69-149.818a1.655,1.655,0,0,1,1.425-1.856l1.581-.208a1.631,1.631,0,0,1,1.218.327Z" transform="translate(-203.725 -171.865)" opacity="0.17" style="mix-blend-mode: normal;isolation: isolate"/>
        <path id="Path_28" data-name="Path 28" d="M217.951,97.7l10.174,14.522,12.093,92.009-6.556,13.006Z" transform="translate(-40.739 -48.305)" fill="#faa160"/>
        <path id="Path_29" data-name="Path 29" d="M595.327,591.91l-6.977.131,19.393-67.366,6.977,2.155Z" transform="translate(-199.461 -231.271)" fill="#303c60"/>
        <path id="Path_30" data-name="Path 30" d="M828.155,720.2l-6.972-.131L802.05,655.843l-.263-.846,4.475-1.383c.886.017,1.806.029,2.755.04l.68,2.2Z" transform="translate(-386.529 -359.436)" fill="#303c60"/>
        <path id="Path_31" data-name="Path 31" d="M685.448,722.847l-8.82,3.056-1.384.478,2.145,5.163L669.207,744.2a3.493,3.493,0,0,0,4.27,5.125l14.351-5.951.354-6.133,3.084,4.707,5.406-2.24-9.078-17.607Z" transform="translate(-329.476 -388.786)" fill="#2f2e41"/>
        <path id="Path_32" data-name="Path 32" d="M603.833,385.623a6.265,6.265,0,0,0,9.368,2.124l18.548,12.313.035-11.569-17.619-9.919a6.3,6.3,0,0,0-10.333,7.051Z" transform="translate(-301.396 -240.65)" fill="#f2c7a7"/>
        <path id="Path_33" data-name="Path 33" d="M628.615,394.5l8.654-9.845L672.5,405.578l46.708-4.277a15.794,15.794,0,0,1,17.167,17.184h0A15.811,15.811,0,0,1,719.2,432.755l-52.6-4.869Z" transform="translate(-312.322 -244.184)" fill="#f47920"/>
        <path id="Path_34" data-name="Path 34" d="M784.966,400.443l-.081-.1-22.077-2.178-14.916,26.274c-12.822,15.675-3.5,26.485-2.947,28.092L740.5,473.05l1,6.868.5,2.04,50.8,26.545-10.442-34.786,10.2-31.723A44.687,44.687,0,0,0,784.966,400.443Z" transform="translate(-360.264 -249.97)" fill="#faa160"/>
        <path id="Path_35" data-name="Path 35" d="M828.074,344.777c.011.28.017.56.017.834a19.184,19.184,0,0,1-25.134,18.207l-3.526-1.149c-.029-.012-.063-.017-.091-.029l-5.812-1.9a3.956,3.956,0,0,1,.011-.737c-8.669-3.7,3.315-15.87,6.292-25.008.463-1.423-15.453-.36-14.7-1.577-.166-.086-.331-.171-.486-.257a23.553,23.553,0,0,1,26.014-10.138c.126.029.257.069.383.1,11.292.28,17.225,8.149,17.225,18.367A28.085,28.085,0,0,1,828.074,344.777Z" transform="translate(-379.184 -217.426)"/>
        <path id="Path_36" data-name="Path 36" d="M816.592,350.651a18.411,18.411,0,0,1-23.208,11.79q-.789-.257-1.543-.583a18.4,18.4,0,0,1-10.247-22.619,18.219,18.219,0,0,1,1.84-3.966,18.405,18.405,0,0,1,33.158,15.379Z" transform="translate(-377.486 -219.277)" fill="#f2c7a7"/>
        <path id="Path_37" data-name="Path 37" d="M797.207,360.306c-.029-.011-.063-.017-.091-.029l-5.812-1.9a3.961,3.961,0,0,1,.011-.737c.173-1.914,1.516-3.917,3.319-6.081a11.137,11.137,0,0,0-4.9-17.687l-.148-.052a51.515,51.515,0,0,1-6.681-2.766c-.166-.086-.332-.171-.486-.257a8.05,8.05,0,0,1-2.966-2.366,17,17,0,0,1,21.436-10.892l3.372,1.1a16.936,16.936,0,0,1,9.83,8.367,19.037,19.037,0,0,1,5.721,7.161C827.2,348.99,812.946,365.357,797.207,360.306Z" transform="translate(-376.96 -215.061)"/>
        <path id="Path_38" data-name="Path 38" d="M791.775,546.164a4.972,4.972,0,0,1-3.188,4.64,4.846,4.846,0,0,1-1.389.309c-.126.011-.257.017-.383.017h-9.6v46.553c-.143.189-.292.377-.44.566-.823,1.051-1.657,2.1-2.5,3.137-.183.229-.366.451-.543.674-.28.337-.554.674-.829,1.006-.1.114-.189.223-.28.337-.469.56-.937,1.12-1.417,1.68v.006c-.006.006-.006.006-.006.011l-.24.274c-.383.451-.766.909-1.16,1.36a4.779,4.779,0,0,1-1.394-1.172,4.623,4.623,0,0,1-.606-.937c-.006-.006-.006-.011-.012-.023a.256.256,0,0,1-.017-.04,4.879,4.879,0,0,1-.48-2.143V551.131H745.782a4.793,4.793,0,0,1-1.852-.36,4.944,4.944,0,0,1-2.983-3.475v-.006a4.892,4.892,0,0,1,.4-3.349c-.006-.006-.006-.006,0-.006a4.54,4.54,0,0,1,.875-1.217v-.006c0-.006,0-.006.006-.011a4.977,4.977,0,0,1,3.555-1.5h41.033A4.963,4.963,0,0,1,791.775,546.164Z" transform="translate(-360.402 -311.266)" fill="#303c60"/>
        <path id="Path_39" data-name="Path 39" d="M863.991,381.555a15.553,15.553,0,0,0-18.147,12.429h0A15.556,15.556,0,0,0,855.4,411.3l-4.676,25,9.758,1.825,10.341-55.3Z" transform="translate(-405.294 -242.739)" fill="#303c60"/>
        <circle id="Ellipse_8" data-name="Ellipse 8" cx="8.001" cy="8.001" r="8.001" transform="translate(436.648 104.429)"/>
        <path id="Path_40" data-name="Path 40" d="M948.255,342.873a36.116,36.116,0,0,1-10.842,1.419c-10.647.184-21.563-.749-31.254-5.164s-18.032-12.8-20.186-23.233c-.928-4.495-.819-9.5-3.652-13.112-3.362-4.286-10.117-4.87-14.823-2.127s-7.453,8.082-8.253,13.47l-1.9,3.082c.044,1.984,2.191,3.3,4.167,3.49s3.962-.358,5.941-.211c4.337.323,7.873,4.033,9.137,8.194s.656,8.663-.426,12.875-2.628,8.322-3.245,12.627-.2,8.977,2.335,12.513c1.9,2.654,4.8,4.413,7.743,5.82a52.246,52.246,0,0,0,73.631-36.3A14.276,14.276,0,0,1,948.255,342.873Z" transform="translate(-410.339 -207.471)"/>
        <path id="Path_41" data-name="Path 41" d="M732.082,649h-16.3a3.723,3.723,0,0,1-3.683-3.2,82.853,82.853,0,0,1,0-22.315,3.723,3.723,0,0,1,3.621-3.2c5.127-2.3,10.649-2.3,16.414,0a3.679,3.679,0,0,1,2.8,1.35,3.764,3.764,0,0,1,.777,3.138,50.1,50.1,0,0,0,0,19.738,3.764,3.764,0,0,1-.777,3.138A3.678,3.678,0,0,1,732.082,649Z" transform="translate(-347.775 -344.416)" fill="#faa160"/>
        <path id="Path_42" data-name="Path 42" d="M733.715,635.181H720a.857.857,0,0,1,0-1.715h13.716a.857.857,0,0,1,0,1.715Z" transform="translate(-351.114 -350.802)" fill="#fff"/>
        <path id="Path_43" data-name="Path 43" d="M733.715,647.181H720a.857.857,0,0,1,0-1.714h13.716a.857.857,0,0,1,0,1.714Z" transform="translate(-351.114 -355.945)" fill="#fff"/>
        <path id="Path_44" data-name="Path 44" d="M733.715,659.181H720a.857.857,0,0,1,0-1.715h13.716a.857.857,0,0,1,0,1.715Z" transform="translate(-351.114 -361.087)" fill="#fff"/>
        <path id="Path_46" data-name="Path 46" d="M434.957,439.923l-3.744,4.118a1.185,1.185,0,0,1-1.269.165,3.769,3.769,0,0,1-1.6-1.1,54.788,54.788,0,0,0-8.956-8.143,3.77,3.77,0,0,1-1.245-1.491,1.2,1.2,0,0,1,.028-1.261c.037-2.253,1.306-3.648,3.773-4.149.432-.45,1.409-.279,2.285.4a90.949,90.949,0,0,1,10.125,9.206C435.122,438.487,435.383,439.455,434.957,439.923Z" transform="translate(-222.059 -262.676)" fill="#faa160"/>
        <path id="Path_47" data-name="Path 47" d="M427.872,432.918l-3.151,3.466c-.109.12-.371.058-.586-.137s-.3-.451-.192-.57l3.151-3.466c.109-.12.371-.058.586.137S427.981,432.8,427.872,432.918Z" transform="translate(-224.596 -264.535)" fill="#fff"/>
        <path id="Path_48" data-name="Path 48" d="M433.317,437.869l-3.151,3.466c-.109.12-.371.058-.586-.137s-.3-.451-.192-.57l3.151-3.466c.109-.12.371-.058.586.137S433.426,437.749,433.317,437.869Z" transform="translate(-226.929 -266.656)" fill="#fff"/>
        <path id="Path_49" data-name="Path 49" d="M438.762,442.819l-3.151,3.466c-.109.12-.371.058-.586-.137s-.3-.451-.192-.57l3.151-3.466c.109-.12.371-.058.586.137S438.871,442.7,438.762,442.819Z" transform="translate(-229.263 -268.777)" fill="#fff"/>
        <path id="Path_50" data-name="Path 50" d="M764.415,770.634a1.337,1.337,0,0,1-.24.788.73.73,0,0,1-.582.325H168.117c-.454,0-.822-.5-.822-1.113s.368-1.113.822-1.113H763.593a.728.728,0,0,1,.582.325,1.334,1.334,0,0,1,.24.788Z" transform="translate(-167.295 -409.104)" fill="#3f3d56"/>
        <path id="Path_51" data-name="Path 51" d="M748.832,613.837a6.265,6.265,0,0,0,1.564-9.478l11.191-19.245-11.55.651-8.856,18.176a6.3,6.3,0,0,0,7.652,9.9Z" transform="translate(-359.75 -330.082)" fill="#f2c7a7"/>
        <path id="Path_52" data-name="Path 52" d="M756.131,528.88l-10.341-8.054,18.791-36.414-7.041-46.372a15.795,15.795,0,0,1,16.135-18.157h0a15.812,15.812,0,0,1,15.266,16.306l-1.74,52.8Z" transform="translate(-362.533 -259.274)" fill="#f47920"/>
        <path id="Path_53" data-name="Path 53" d="M578.133,369.879H543.215a3.534,3.534,0,0,1-3.53-3.53V320.114a3.534,3.534,0,0,1,3.53-3.53h34.918a3.534,3.534,0,0,1,3.53,3.53v46.235a3.534,3.534,0,0,1-3.53,3.53Z" transform="translate(-274.214 -215.012)" fill="#e6e6e6"/>
        <path id="Path_54" data-name="Path 54" d="M577.815,369.143H547.806a3.138,3.138,0,0,1-3.134-3.134V324.866a3.137,3.137,0,0,1,3.134-3.134h30.009a3.138,3.138,0,0,1,3.134,3.134v41.143A3.137,3.137,0,0,1,577.815,369.143Z" transform="translate(-276.351 -217.218)" fill="#fff"/>
        <path id="Path_55" data-name="Path 55" d="M578.829,334.238H554.807a.783.783,0,0,1,0-1.567h24.022a.783.783,0,1,1,0,1.567Z" transform="translate(-280.358 -221.906)" fill="#f47920"/>
        <path id="Path_56" data-name="Path 56" d="M578.829,339.655H554.807a.783.783,0,0,1,0-1.567h24.022a.783.783,0,1,1,0,1.567Z" transform="translate(-280.358 -224.227)" fill="#f47920"/>
        <path id="Path_57" data-name="Path 57" d="M565.22,345.072H554.807a.783.783,0,1,1,0-1.567H565.22a.783.783,0,1,1,0,1.567Z" transform="translate(-280.358 -226.549)" fill="#f47920"/>
        <path id="Path_58" data-name="Path 58" d="M578.829,356.418H554.807a.783.783,0,0,1,0-1.567h24.022a.783.783,0,1,1,0,1.567Z" transform="translate(-280.358 -231.41)" fill="#e4e4e4"/>
        <path id="Path_59" data-name="Path 59" d="M578.829,361.835H554.807a.783.783,0,0,1,0-1.567h24.022a.783.783,0,1,1,0,1.567Z" transform="translate(-280.358 -233.732)" fill="#e4e4e4"/>
        <path id="Path_60" data-name="Path 60" d="M565.22,367.251H554.807a.783.783,0,1,1,0-1.567H565.22a.783.783,0,0,1,0,1.567Z" transform="translate(-280.358 -236.053)" fill="#e4e4e4"/>
        <path id="Path_61" data-name="Path 61" d="M578.829,378.6H554.807a.783.783,0,1,1,0-1.567h24.022a.783.783,0,1,1,0,1.567Z" transform="translate(-280.358 -240.915)" fill="#e4e4e4"/>
        <path id="Path_62" data-name="Path 62" d="M578.829,384.014H554.807a.783.783,0,0,1,0-1.567h24.022a.783.783,0,1,1,0,1.567Z" transform="translate(-280.358 -243.236)" fill="#e4e4e4"/>
        <path id="Path_63" data-name="Path 63" d="M565.22,389.431H554.807a.783.783,0,0,1,0-1.567H565.22a.783.783,0,0,1,0,1.567Z" transform="translate(-280.358 -245.557)" fill="#e4e4e4"/>
        <path id="Path_70" data-name="Path 70" d="M235.812,498.551a16.492,16.492,0,0,0,1.617-.706l.079.124Z" transform="translate(-143.999 -292.686)" fill="#e6e6e6"/>
        <path id="Path_75" data-name="Path 75" d="M587.133,166.591H552.215a3.534,3.534,0,0,1-3.53-3.53V131.114a3.534,3.534,0,0,1,3.53-3.53h34.918a3.533,3.533,0,0,1,3.529,3.53v31.948a3.534,3.534,0,0,1-3.53,3.53Z" transform="translate(-270.419 -117.196)" fill="#e6e6e6"/>
        <path id="Path_76" data-name="Path 76" d="M586.815,165.855H556.806a3.138,3.138,0,0,1-3.134-3.134V135.865a3.138,3.138,0,0,1,3.134-3.134h30.009a3.138,3.138,0,0,1,3.134,3.134v26.856A3.138,3.138,0,0,1,586.815,165.855Z" transform="translate(-272.557 -119.401)" fill="#fff"/>
        <path id="Path_77" data-name="Path 77" d="M587.829,145.238H563.807a.783.783,0,1,1,0-1.567h24.022a.783.783,0,0,1,0,1.567Z" transform="translate(-276.564 -124.089)" fill="#f47920"/>
        <path id="Path_78" data-name="Path 78" d="M587.829,150.655H563.807a.783.783,0,1,1,0-1.567h24.022a.783.783,0,0,1,0,1.567Z" transform="translate(-276.564 -126.411)" fill="#f47920"/>
        <path id="Path_79" data-name="Path 79" d="M574.22,156.072H563.807a.783.783,0,1,1,0-1.567H574.22a.783.783,0,0,1,0,1.567Z" transform="translate(-276.564 -128.732)" fill="#f47920"/>
        <path id="Path_80" data-name="Path 80" d="M587.829,167.418H563.807a.783.783,0,1,1,0-1.567h24.022a.783.783,0,0,1,0,1.567Z" transform="translate(-276.564 -133.594)" fill="#e4e4e4"/>
        <path id="Path_81" data-name="Path 81" d="M587.829,172.834H563.807a.783.783,0,1,1,0-1.567h24.022a.783.783,0,1,1,0,1.567Z" transform="translate(-276.564 -135.915)" fill="#e4e4e4"/>
        <path id="Path_82" data-name="Path 82" d="M574.22,178.251H563.807a.783.783,0,1,1,0-1.567H574.22a.783.783,0,0,1,0,1.567Z" transform="translate(-276.564 -138.236)" fill="#e4e4e4"/>
        <g id="Group_43" data-name="Group 43" transform="translate(34.818 265.208)">
          <g id="Group_42" data-name="Group 42" clip-path="url(#clip-path-2)">
            <path id="Path_205" data-name="Path 205" d="M305.164,210.51s-6.662-7.772-.411-12.708c0,0,4.566-2.765,8.289-2.54,0,0-5.275,8.847-3.569,9.726s5.168-10.281,5.168-10.281,10.391-1.008,13.733.6c0,0-8.883,7.269-7.012,7.7s11.465-6.7,11.465-6.7,9.671,1.646,9.155,7.545-3.848,7.721-5.313,7.564-10.032-3.427-10.218-2.227,4.97,5.122,8.582,5.305c0,0-6.818,7.519-11.349,5.349s-4.918-5.61-7.743-6.9-5.236-1.287-4.07.029,6.278,2.595,7.894,5.452,3.065,4.784-1.624,4.079-12.309-4.136-12.643-8.064Z" transform="translate(-243.001 -156.378)" fill="#9cd499"/>
            <path id="Path_206" data-name="Path 206" d="M325.881,243.374s-26.266-1.012-32.067,6.5a19,19,0,0,1-5.23,7.341l-.615,1.677s4.551-4.8,6.18-5.089c0,0-2.547-9.307,31.733-10.428" transform="translate(-231.651 -195.742)" fill="#74b570"/>
            <path id="Path_207" data-name="Path 207" d="M266.313,311.614a16.493,16.493,0,0,0-6.03,11.62l1.023.092s1.8-7.7,5.055-10.716-.049-1-.049-1" transform="translate(-209.381 -250.141)" fill="#74b570"/>
            <path id="Path_208" data-name="Path 208" d="M38.871,113.94s10.6-5.934,5.652-13.988c0,0-3.956-4.945-8.195-6.217,0,0,2.261,12.01,0,12.292s-1.554-13.564-1.554-13.564-11.162-5.369-15.543-4.946c0,0,6.924,11.728,4.663,11.445S13.861,86.811,13.861,86.811,2.417,84.692.58,91.474s1.13,10.173,2.826,10.6,12.575.283,12.293,1.7-7.63,3.674-11.727,2.4c0,0,4.521,11.162,10.456,10.6s7.771-4.239,11.445-4.521,6.358.706,4.521,1.7-8.054.324-11.021,2.847-5.369,4.077.141,5.207,15.4.424,17.379-3.815Z" transform="translate(0 -69.582)" fill="#9cd499"/>
            <path id="Path_209" data-name="Path 209" d="M29.7,122.781s29.672,9.608,33.063,20.346a22.539,22.539,0,0,0,2.826,10.315v2.12s-3.109-7.206-4.8-8.2c0,0,6.641-9.326-31.085-24.585" transform="translate(-23.888 -98.769)" fill="#74b570"/>
            <path id="Path_210" data-name="Path 210" d="M207.378,274.136a19.57,19.57,0,0,1,1.967,15.407l-1.177-.316s1.143-9.316-1.251-14,.461-1.089.461-1.089" transform="translate(-165.681 -219.464)" fill="#74b570"/>
            <path id="Path_211" data-name="Path 211" d="M247.193,36.174s-13.969-7.823-7.45-18.439c0,0,5.215-6.519,10.8-8.2,0,0-2.98,15.831,0,16.2s2.049-17.88,2.049-17.88S267.308.785,273.082,1.344c0,0-9.126,15.459-6.146,15.087S280.16.413,280.16.413s15.087-2.794,17.508,6.146-1.49,13.41-3.725,13.969-16.576.373-16.2,2.235S287.8,27.606,293.2,25.93c0,0-5.96,14.714-13.783,13.969s-10.244-5.587-15.087-5.96-8.381.931-5.96,2.235,10.616.427,14.528,3.752,7.078,5.374-.186,6.864-20.3.559-22.909-5.029Z" transform="translate(-191.463 0)" fill="#9cd499"/>
            <path id="Path_212" data-name="Path 212" d="M313.227,47.827s-39.113,12.665-43.583,26.821a29.715,29.715,0,0,1-3.725,13.6v2.794s4.1-9.5,6.333-10.8c0,0-8.754-12.293,40.976-32.408" transform="translate(-213.914 -38.474)" fill="#74b570"/>
            <path id="Path_213" data-name="Path 213" d="M250.894,247.342a25.8,25.8,0,0,0-2.593,20.31l1.552-.417s-1.506-12.281,1.649-18.458-.608-1.435-.608-1.435" transform="translate(-198.889 -197.572)" fill="#74b570"/>
            <path id="Path_214" data-name="Path 214" d="M170.005,369.429a27.363,27.363,0,0,0,27.363-27.363H142.642a27.363,27.363,0,0,0,27.363,27.363" transform="translate(-114.746 -275.17)" fill="#f47920"/>
            <path id="Path_215" data-name="Path 215" d="M190.457,369.218A27.381,27.381,0,0,1,159.7,342.064h6.8a27.368,27.368,0,0,0,23.964,27.154" transform="translate(-128.464 -275.168)" fill="#f49c5c"/>
            <path id="Path_216" data-name="Path 216" d="M196.191,475.216H140.709a3.376,3.376,0,0,1,3.376-3.376h48.73a3.376,3.376,0,0,1,3.376,3.376" transform="translate(-113.191 -379.564)" fill="#f49c5c"/>
            <rect id="Rectangle_21" data-name="Rectangle 21" width="56.248" height="0.839" transform="translate(26.996 66.896)" fill="#f49c5c"/>
          </g>
        </g>
        <g id="Group_47" data-name="Group 47" transform="translate(238.785 169.763)">
          <g id="Group_46" data-name="Group 46" clip-path="url(#clip-path-3)">
            <path id="Path_218" data-name="Path 218" d="M14.527,39.159c0-.394,4.744-13.5,1.536-21.944a49.436,49.436,0,0,1-2.6-13S9.09,10.479,12.045,20.052c1.819,5.892,2.561,7.525,2.718,9.258s-.709,10.4-.709,10.4Z" transform="translate(-9.681 -3.703)" fill="#9cd499"/>
            <path id="Path_219" data-name="Path 219" d="M13.038,38.8a.146.146,0,0,1-.145-.16c.009-.087.864-8.673.709-10.373a21.625,21.625,0,0,0-1.217-4.542c-.392-1.2-.88-2.693-1.5-4.686a21.036,21.036,0,0,1-.4-11.589,14.678,14.678,0,0,1,1.839-4.375.146.146,0,0,1,.265.076,49.666,49.666,0,0,0,2.591,12.956c1.2,3.156,1.44,7.318.716,12.37a61.678,61.678,0,0,1-2.05,8.953c-.1.336-.187.625-.193.679a.128.128,0,0,1-.035.088l-.473.552a.146.146,0,0,1-.111.051M12.332,3.624A15.983,15.983,0,0,0,10.767,7.54a20.749,20.749,0,0,0,.4,11.415c.614,1.991,1.1,3.483,1.493,4.681a21.762,21.762,0,0,1,1.231,4.607c.138,1.517-.486,8.135-.664,9.968l.144-.168c.017-.087.068-.26.2-.693,2.739-9.158,3.191-16.269,1.341-21.136A49.248,49.248,0,0,1,12.332,3.624" transform="translate(-8.665 -2.648)" fill="#74b570"/>
            <path id="Path_220" data-name="Path 220" d="M47.662,36.8C46.953,22.218,50.42,14.26,57.512,7.957S64.918,0,64.918,0s-1.1,12.292-5.2,16.546-10.085,7.407-10.952,9.613-.552,9.613-.552,9.613l-.551,1.34Z" transform="translate(-41.792 0.001)" fill="#9cd499"/>
            <path id="Path_221" data-name="Path 221" d="M41.164,198.732c-.079-.236,1.5-13.631,7.249-14.419s7.091.552,11.031-.079a24.6,24.6,0,0,0,4.964-1.339,10.259,10.259,0,0,1-6.618,5.358c-3.624,1.1-8.352-.709-11.11-.236S42.5,194.4,42.5,194.4l-.473,3.073Z" transform="translate(-36.161 -160.676)" fill="#9cd499"/>
            <path id="Path_222" data-name="Path 222" d="M46.083,68.638a.146.146,0,0,1-.145-.132c-.009-.094-.825-9.5,3.169-16.709A31.309,31.309,0,0,1,55.6,43.832,23.532,23.532,0,0,0,61,37.146a.146.146,0,0,1,.261.13A23.77,23.77,0,0,1,55.8,44.042a31.069,31.069,0,0,0-6.441,7.895c-3.95,7.125-3.143,16.448-3.134,16.541a.146.146,0,0,1-.132.159h-.014" transform="translate(-40.292 -32.563)" fill="#74b570"/>
            <path id="Path_223" data-name="Path 223" d="M43.372,205.222a.146.146,0,0,1-.14-.187c1.508-5.2,3.239-8.232,5.447-9.545,1.974-1.175,4.014-.814,6.175-.432.529.093,1.075.19,1.617.261,4.694.616,6.983-.525,7.006-.537a.146.146,0,0,1,.134.259c-.095.049-2.381,1.2-7.177.566-.548-.072-1.1-.169-1.629-.263-2.1-.372-4.093-.723-5.975.4-2.141,1.273-3.83,4.253-5.317,9.376a.146.146,0,0,1-.14.105" transform="translate(-37.975 -171.038)" fill="#74b570"/>
            <path id="Path_224" data-name="Path 224" d="M105.311,92.118a.146.146,0,0,1-.089-.261,17.659,17.659,0,0,1,6.719-2.9.146.146,0,1,1,.055.286,17.33,17.33,0,0,0-6.6,2.848.145.145,0,0,1-.089.03" transform="translate(-92.389 -78.144)" fill="#74b570"/>
            <path id="Path_225" data-name="Path 225" d="M68.666,122.39a.146.146,0,0,1-.125-.22c2.052-3.46,4.455-4.332,9.694-5.974a.146.146,0,1,1,.087.278c-5.166,1.619-7.534,2.477-9.531,5.845a.146.146,0,0,1-.126.071" transform="translate(-60.196 -102.074)" fill="#74b570"/>
            <path id="Path_226" data-name="Path 226" d="M7.2,284.65H3.677a2.589,2.589,0,0,1-2.543-2.1L0,276.613H10.873l-1.135,5.934a2.589,2.589,0,0,1-2.543,2.1" transform="translate(0 -243.008)" fill="#f39892"/>
            <path id="Path_227" data-name="Path 227" d="M11.053,284.849H.811a.292.292,0,1,1,0-.583H11.053a.292.292,0,1,1,0,.583" transform="translate(-0.456 -249.731)" fill="#d54a41"/>
          </g>
        </g>
        <g id="Group_50" data-name="Group 50" transform="translate(193.07 195.761)">
          <g id="Group_49" data-name="Group 49" transform="translate(0 0)" clip-path="url(#clip-path-4)">
            <path id="Path_323" data-name="Path 323" d="M35.575,30.585H2.809a.884.884,0,0,1-.881-.881V24.535a.884.884,0,0,1,.881-.882H35.575a2.219,2.219,0,0,1,2.212,2.212v2.508a2.219,2.219,0,0,1-2.212,2.212" transform="translate(-1.586 -19.46)" fill="#f37168"/>
            <path id="Path_324" data-name="Path 324" d="M31.455,30.27H.346A2.386,2.386,0,0,0,0,31.5v2.118a2.386,2.386,0,0,0,.346,1.234H31.455a2.014,2.014,0,0,0,2.008-2.008v-.57a2.014,2.014,0,0,0-2.008-2.008" transform="translate(0 -24.903)" fill="#f2e5de"/>
            <path id="Path_325" data-name="Path 325" d="M67.137,4.193H42.221a.6.6,0,0,1-.595-.595v-3A.6.6,0,0,1,42.221,0H67.137A1.5,1.5,0,0,1,68.63,1.493V2.7a1.5,1.5,0,0,1-1.493,1.493" transform="translate(-34.246 0)" fill="#7bcee8"/>
            <path id="Path_326" data-name="Path 326" d="M63.863,4H40.435a1.239,1.239,0,0,0-.26.746V6.03a1.239,1.239,0,0,0,.26.747H63.863a1.392,1.392,0,0,0,1.512-1.215V5.217A1.392,1.392,0,0,0,63.863,4" transform="translate(-33.052 -3.292)" fill="#f2e5de"/>
          </g>
        </g>
      </g>
      <g id="Group_45" data-name="Group 45" transform="translate(1334.671 403.132)">
        <g id="Group_44" data-name="Group 44" transform="translate(0 0)" clip-path="url(#clip-path-5)">
          <path id="Path_217" data-name="Path 217" d="M1.306,29.141H27.56c1.407-1.193-.974-3.9-3.46-4.086a15.34,15.34,0,0,0-4.007.474c-.361-4.8-2.425-26.371-10.2-25.5-8.743.97,0,9.5,2.472,14.55A120.113,120.113,0,0,1,17.008,26.21c-.71.154-1.445.3-2.2.443-1.159-3.558-5.47-15.527-10.954-14.83-6.438.817-3.85,5.615.713,8.464,3.348,2.095,7.459,5.072,9.412,6.51a27.881,27.881,0,0,1-5.135.412c-4.5-.107-6.692,1.218-7.543,1.931" transform="translate(0 0.001)" fill="#a8d29f"/>
        </g>
      </g>
    </g>
    <g id="Group_52" data-name="Group 52" transform="translate(811 147.778)">
      <g id="Group_51" data-name="Group 51" clip-path="url(#clip-path-6)">
        <path id="Path_327" data-name="Path 327" d="M61.291,64.043H4.722A4.736,4.736,0,0,1,0,59.321V4.722A4.736,4.736,0,0,1,4.722,0h56.57a4.736,4.736,0,0,1,4.722,4.722v54.6a4.736,4.736,0,0,1-4.722,4.722" fill="#eddabb"/>
        <path id="Path_328" data-name="Path 328" d="M63.966,66.241H12.3a4.325,4.325,0,0,1-4.312-4.312V12.059A4.325,4.325,0,0,1,12.3,7.747H63.966a4.325,4.325,0,0,1,4.312,4.312V61.928a4.324,4.324,0,0,1-4.312,4.312" transform="translate(-5.125 -4.973)" fill="#f6ecdb"/>
        <path id="Path_329" data-name="Path 329" d="M88.344,21.616a1.367,1.367,0,1,1,1.367,1.367,1.367,1.367,0,0,1-1.367-1.367" transform="translate(-56.705 -12.997)" fill="#baae99"/>
        <path id="Path_330" data-name="Path 330" d="M118.843,28.2a1.367,1.367,0,1,1,.531,1.859,1.367,1.367,0,0,1-.531-1.859" transform="translate(-76.17 -17.651)" fill="#baae99"/>
        <path id="Path_331" data-name="Path 331" d="M144.425,50.042a1.368,1.368,0,1,1-.408,1.89,1.367,1.367,0,0,1,.408-1.89" transform="translate(-92.299 -31.98)" fill="#baae99"/>
        <path id="Path_332" data-name="Path 332" d="M156.17,82.89a1.368,1.368,0,1,1-1.367,1.367,1.367,1.367,0,0,1,1.367-1.367" transform="translate(-99.362 -53.204)" fill="#baae99"/>
        <path id="Path_333" data-name="Path 333" d="M147.762,119.839a1.367,1.367,0,1,1-1.933,0,1.367,1.367,0,0,1,1.933,0" transform="translate(-93.344 -76.663)" fill="#baae99"/>
        <path id="Path_334" data-name="Path 334" d="M123.786,143.878a1.367,1.367,0,1,1-1.934,0,1.367,1.367,0,0,1,1.934,0" transform="translate(-77.955 -92.093)" fill="#baae99"/>
        <path id="Path_335" data-name="Path 335" d="M88.344,154.536a1.367,1.367,0,1,1,1.367,1.367,1.367,1.367,0,0,1-1.367-1.367" transform="translate(-56.705 -98.313)" fill="#baae99"/>
        <path id="Path_336" data-name="Path 336" d="M60.456,28.2a1.368,1.368,0,1,0-.531,1.859,1.367,1.367,0,0,0,.531-1.859" transform="translate(-37.159 -17.651)" fill="#baae99"/>
        <path id="Path_337" data-name="Path 337" d="M34.874,50.042a1.367,1.367,0,1,0,.408,1.89,1.367,1.367,0,0,0-.408-1.89" transform="translate(-21.031 -31.98)" fill="#baae99"/>
        <path id="Path_338" data-name="Path 338" d="M23.129,82.89A1.368,1.368,0,1,0,24.5,84.257a1.367,1.367,0,0,0-1.367-1.367" transform="translate(-13.968 -53.204)" fill="#baae99"/>
        <path id="Path_339" data-name="Path 339" d="M31.537,119.839a1.367,1.367,0,1,0,1.934,0,1.368,1.368,0,0,0-1.934,0" transform="translate(-19.986 -76.663)" fill="#baae99"/>
        <path id="Path_340" data-name="Path 340" d="M55.513,143.878a1.367,1.367,0,1,0,1.934,0,1.367,1.367,0,0,0-1.934,0" transform="translate(-35.375 -92.093)" fill="#baae99"/>
        <path id="Path_341" data-name="Path 341" d="M91.133,84.258A1.367,1.367,0,1,1,92.5,85.626a1.367,1.367,0,0,1-1.367-1.367" transform="translate(-58.495 -53.205)" fill="#baae99"/>
        <rect id="Rectangle_30" data-name="Rectangle 30" width="0.374" height="17.083" transform="translate(33.819 13.971)" fill="#baae99"/>
        <rect id="Rectangle_31" data-name="Rectangle 31" width="11.514" height="1.12" transform="matrix(0.786, -0.618, 0.618, 0.786, 33.487, 30.59)" fill="#baae99"/>
      </g>
    </g>
    <path id="Path_342" data-name="Path 342" d="M149.074,35.941a6.4,6.4,0,0,1-6.371,6.378H6.371a6.366,6.366,0,0,1-4.5-10.879,6.3,6.3,0,0,1,4.5-1.877h6.445a16.62,16.62,0,0,1,27.047-5.149,23.084,23.084,0,0,1,26.6-10.393A26.387,26.387,0,0,1,115.2,19.347a16.621,16.621,0,0,1,23.4,10.216h4.1a6.393,6.393,0,0,1,6.371,6.378" transform="translate(1120.768 94.876)" fill="#ebe7df"/>
    <path id="Path_342-2" data-name="Path 342" d="M107.242,25.856a4.607,4.607,0,0,1-4.583,4.588H4.583a4.58,4.58,0,0,1-3.234-7.826,4.53,4.53,0,0,1,3.234-1.35H9.219a11.956,11.956,0,0,1,19.457-3.7,16.606,16.606,0,0,1,19.134-7.477,18.983,18.983,0,0,1,35.064,3.831,11.957,11.957,0,0,1,16.833,7.35h2.952a4.6,4.6,0,0,1,4.583,4.588" transform="translate(976.963 147.778)" fill="#ebe7df"/>
  </g>
</svg>
